# xmcd CD database file
#
# Track frame offsets:
#	150
#	11102
#	26037
#	40755
#	54762
#	67602
#	78717
#	98730
#	112502
#	128260
#	144592
#	159767
#	176530
#	189885
#
# Disc length: 2693 seconds
#
# Revision: 5
# Processed by: cddbd v1.4PL0 Copyright (c) Steve Scherf et al.
# Submitted via: CDex 1.50Beta6
#
DISCID=960a830e
DTITLE=Love Hit 70 ´s - The Twinstrax
DYEAR=1900
DGENRE=Blues
TTITLE0=Yo Que No Vivo Sin Ti
TTITLE1=Mammy Blue
TTITLE2=Que Tan Grande Es Tu Amor
TTITLE3=Rosa Marchita
TTITLE4=Jardin De Rosas
TTITLE5=Amor Infantil
TTITLE6=No Rompas Mi Corazon
TTITLE7=Gotas De Lluvia Sobre Mi Cabeza
TTITLE8=Dividida Entre Dos Amantes
TTITLE9=Mariposa
TTITLE10=Mandy
TTITLE11=Tu Iluminas Mi Vida
TTITLE12=Domingo Maravilloso
TTITLE13=Eres Mi Mundo
EXTD=
EXTT0=
EXTT1=
EXTT2=
EXTT3=
EXTT4=
EXTT5=
EXTT6=
EXTT7=
EXTT8=
EXTT9=
EXTT10=
EXTT11=
EXTT12=
EXTT13=
PLAYORDER=
